<?xml version="1.0" encoding="utf-8"?>
<!-- Generator: Adobe Illustrator 23.0.6, SVG Export Plug-In . SVG Version: 6.00 Build 0)  -->
<svg version="1.1" id="Layer_1" xmlns="http://www.w3.org/2000/svg" xmlns:xlink="http://www.w3.org/1999/xlink" x="0px" y="0px"
	 viewBox="0 0 36 36" style="enable-background:new 0 0 36 36;" xml:space="preserve">
<style type="text/css">
	.st0{fill:#C7C7C7;}
	.st1{fill:#262626;}
</style>
<g>
	<g>
		<circle class="st0" cx="18" cy="18" r="16.5"/>
		<g>
			<path class="st1" d="M18,2.1c8.8,0,15.9,7.1,15.9,15.9S26.8,33.9,18,33.9S2.1,26.8,2.1,18S9.2,2.1,18,2.1 M18,1C8.6,1,1,8.6,1,18
				s7.6,17,17,17s17-7.6,17-17S27.4,1,18,1L18,1z"/>
		</g>
	</g>
	<g>
		<path class="st0" d="M14.7,33C8.2,33,3,27.8,3,21.3C3,14.9,8.2,9.7,14.7,9.7c6.4,0,11.7,5.2,11.7,11.7C26.3,27.8,21.1,33,14.7,33z
			"/>
		<g>
			<path class="st1" d="M14.7,10.2c6.1,0,11.1,5,11.1,11.1s-5,11.1-11.1,11.1s-11.1-5-11.1-11.1S8.5,10.2,14.7,10.2 M14.7,9.1
				c-6.7,0-12.2,5.5-12.2,12.2s5.5,12.2,12.2,12.2s12.2-5.5,12.2-12.2S21.4,9.1,14.7,9.1L14.7,9.1z"/>
		</g>
	</g>
	<g>
		<path class="st0" d="M18,26.3c-4,0-7.2-3.2-7.2-7.2s3.2-7.2,7.2-7.2c4,0,7.2,3.2,7.2,7.2S21.9,26.3,18,26.3z"/>
		<g>
			<path class="st1" d="M18,12.4c3.7,0,6.7,3,6.7,6.7s-3,6.7-6.7,6.7s-6.7-3-6.7-6.7S14.3,12.4,18,12.4 M18,11.3
				c-4.3,0-7.8,3.5-7.8,7.8s3.5,7.8,7.8,7.8s7.8-3.5,7.8-7.8S22.2,11.3,18,11.3L18,11.3z"/>
		</g>
	</g>
	<g>
		<path class="st0" d="M16.1,24.9c-2.2,0-3.9-1.8-3.9-3.9s1.8-3.9,3.9-3.9S20,18.8,20,21S18.3,24.9,16.1,24.9z"/>
		<g>
			<path class="st1" d="M16.1,17.6c1.9,0,3.4,1.5,3.4,3.4c0,1.9-1.5,3.4-3.4,3.4c-1.9,0-3.4-1.5-3.4-3.4
				C12.7,19.1,14.2,17.6,16.1,17.6 M16.1,16.5c-2.4,0-4.4,2-4.4,4.4s2,4.4,4.4,4.4c2.4,0,4.4-2,4.4-4.4S18.6,16.5,16.1,16.5
				L16.1,16.5z"/>
		</g>
	</g>
</g>
</svg>
